<svg xmlns="http://www.w3.org/2000/svg" width="109.21" height="35" viewBox="0 0 109.21 35"><rect class="svg__rect" x="0" y="0" width="0" height="35" fill="#31C4F3"/><rect class="svg__rect" x="0" y="0" width="109.21" height="35" fill="#000000"/><path class="svg__text" d="" fill="#FFFFFF"/><path class="svg__text" d="M13.76 17.80L13.76 17.80Q13.76 16.54 14.36 15.54Q14.96 14.55 16.01 13.99Q17.06 13.43 18.38 13.43L18.38 13.43Q19.53 13.43 20.45 13.84Q21.38 14.25 21.99 15.02L21.99 15.02L20.48 16.39Q19.67 15.40 18.50 15.40L18.50 15.40Q17.81 15.40 17.28 15.70Q16.75 16 16.45 16.54Q16.16 17.09 16.16 17.80L16.16 17.80Q16.16 18.51 16.45 19.05Q16.75 19.60 17.28 19.90Q17.81 20.20 18.50 20.20L18.50 20.20Q19.67 20.20 20.48 19.22L20.48 19.22L21.99 20.58Q21.38 21.35 20.46 21.76Q19.53 22.17 18.38 22.17L18.38 22.17Q17.06 22.17 16.01 21.61Q14.96 21.05 14.36 20.05Q13.76 19.06 13.76 17.80ZM26.10 17.80L26.10 17.80Q26.10 16.55 26.70 15.55Q27.31 14.56 28.37 14.00Q29.43 13.43 30.76 13.43L30.76 13.43Q32.09 13.43 33.16 14.00Q34.22 14.56 34.83 15.55Q35.43 16.55 35.43 17.80L35.43 17.80Q35.43 19.05 34.83 20.04Q34.22 21.04 33.16 21.60Q32.10 22.17 30.76 22.17L30.76 22.17Q29.43 22.17 28.37 21.60Q27.31 21.04 26.70 20.04Q26.10 19.05 26.10 17.80ZM28.50 17.80L28.50 17.80Q28.50 18.51 28.80 19.05Q29.10 19.60 29.62 19.90Q30.13 20.20 30.76 20.20L30.76 20.20Q31.40 20.20 31.92 19.90Q32.43 19.60 32.73 19.05Q33.03 18.51 33.03 17.80L33.03 17.80Q33.03 17.09 32.73 16.54Q32.43 16 31.92 15.70Q31.40 15.40 30.76 15.40L30.76 15.40Q30.13 15.40 29.61 15.70Q29.10 16 28.80 16.54Q28.50 17.09 28.50 17.80ZM44.14 22L40.16 22L40.16 13.60L44.14 13.60Q45.52 13.60 46.58 14.12Q47.65 14.63 48.24 15.58Q48.83 16.53 48.83 17.80L48.83 17.80Q48.83 19.07 48.24 20.02Q47.65 20.97 46.58 21.48Q45.52 22 44.14 22L44.14 22ZM42.54 15.50L42.54 20.10L44.04 20.10Q45.12 20.10 45.77 19.49Q46.43 18.88 46.43 17.80L46.43 17.80Q46.43 16.72 45.77 16.11Q45.12 15.50 44.04 15.50L44.04 15.50L42.54 15.50ZM60.30 22L53.56 22L53.56 13.60L60.15 13.60L60.15 15.44L55.91 15.44L55.91 16.85L59.64 16.85L59.64 18.63L55.91 18.63L55.91 20.17L60.30 20.17L60.30 22ZM67.48 22L65.11 22L65.11 13.60L68.95 13.60Q70.09 13.60 70.93 13.98Q71.77 14.35 72.22 15.06Q72.68 15.76 72.68 16.71L72.68 16.71Q72.68 17.66 72.22 18.35Q71.77 19.05 70.93 19.42Q70.09 19.80 68.95 19.80L68.95 19.80L67.48 19.80L67.48 22ZM67.48 15.47L67.48 17.93L68.80 17.93Q69.54 17.93 69.91 17.61Q70.28 17.29 70.28 16.71L70.28 16.71Q70.28 16.12 69.91 15.80Q69.54 15.47 68.80 15.47L68.80 15.47L67.48 15.47ZM84.18 22L77.43 22L77.43 13.60L84.03 13.60L84.03 15.44L79.79 15.44L79.79 16.85L83.52 16.85L83.52 18.63L79.79 18.63L79.79 20.17L84.18 20.17L84.18 22ZM91.31 22L88.98 22L88.98 13.60L90.94 13.60L94.65 18.07L94.65 13.60L96.97 13.60L96.97 22L95.02 22L91.31 17.52L91.31 22Z" fill="#FFFFFF" x="39"/></svg>