<svg xmlns="http://www.w3.org/2000/svg" width="91.86999999999999" height="35" viewBox="0 0 91.86999999999999 35"><rect class="svg__rect" x="0" y="0" width="0" height="35" fill="#31C4F3"/><rect class="svg__rect" x="0" y="0" width="91.86999999999999" height="35" fill="#333333"/><path class="svg__text" d="" fill="#FFFFFF"/><path class="svg__text" d="M13.76 17.80L13.76 17.80Q13.76 16.54 14.36 15.54Q14.96 14.55 16.02 13.99Q17.09 13.43 18.44 13.43L18.44 13.43Q19.61 13.43 20.55 13.83Q21.49 14.22 22.11 14.97L22.11 14.97L20.60 16.33Q19.75 15.40 18.58 15.40L18.58 15.40Q18.56 15.40 18.56 15.40L18.56 15.40Q17.48 15.40 16.82 16.06Q16.16 16.71 16.16 17.80L16.16 17.80Q16.16 18.50 16.46 19.04Q16.76 19.59 17.30 19.89Q17.84 20.20 18.54 20.20L18.54 20.20Q19.22 20.20 19.82 19.93L19.82 19.93L19.82 17.62L21.92 17.62L21.92 21.10Q21.20 21.61 20.26 21.89Q19.33 22.17 18.39 22.17L18.39 22.17Q17.07 22.17 16.01 21.61Q14.96 21.05 14.36 20.05Q13.76 19.06 13.76 17.80ZM29.29 22L26.91 22L26.91 13.60L29.29 13.60L29.29 22ZM36.25 15.48L33.67 15.48L33.67 13.60L41.19 13.60L41.19 15.48L38.63 15.48L38.63 22L36.25 22L36.25 15.48ZM47.94 22L45.56 22L45.56 13.60L47.94 13.60L47.94 16.76L51.18 16.76L51.18 13.60L53.56 13.60L53.56 22L51.18 22L51.18 18.72L47.94 18.72L47.94 22ZM58.65 18.26L58.65 18.26L58.65 13.60L61.03 13.60L61.03 18.19Q61.03 20.20 62.62 20.20L62.62 20.20Q64.20 20.20 64.20 18.19L64.20 18.19L64.20 13.60L66.55 13.60L66.55 18.26Q66.55 20.13 65.51 21.15Q64.47 22.17 62.60 22.17L62.60 22.17Q60.72 22.17 59.69 21.15Q58.65 20.13 58.65 18.26ZM76.17 22L71.63 22L71.63 13.60L75.93 13.60Q77.54 13.60 78.38 14.19Q79.22 14.79 79.22 15.79L79.22 15.79Q79.22 16.39 78.93 16.87Q78.63 17.34 78.09 17.62L78.09 17.62Q78.81 17.87 79.22 18.41Q79.63 18.94 79.63 19.70L79.63 19.70Q79.63 20.80 78.74 21.40Q77.85 22 76.17 22L76.17 22ZM73.99 18.58L73.99 20.28L75.98 20.28Q77.23 20.28 77.23 19.43L77.23 19.43Q77.23 18.58 75.98 18.58L75.98 18.58L73.99 18.58ZM73.99 15.31L73.99 16.94L75.62 16.94Q76.82 16.94 76.82 16.12L76.82 16.12Q76.82 15.31 75.62 15.31L75.62 15.31L73.99 15.31Z" fill="#FFFFFF" x="39"/></svg>