<svg xmlns="http://www.w3.org/2000/svg" width="110.51" height="35" viewBox="0 0 110.51 35"><rect class="svg__rect" x="0" y="0" width="0" height="35" fill="#31C4F3"/><rect class="svg__rect" x="0" y="0" width="110.51" height="35" fill="#0077B5"/><path class="svg__text" d="" fill="#FFFFFF"/><path class="svg__text" d="M20.57 22L14.19 22L14.19 13.60L16.57 13.60L16.57 20.11L20.57 20.11L20.57 22ZM27.37 22L24.99 22L24.99 13.60L27.37 13.60L27.37 22ZM34.88 22L32.55 22L32.55 13.60L34.50 13.60L38.21 18.07L38.21 13.60L40.54 13.60L40.54 22L38.59 22L34.88 17.52L34.88 22ZM48.06 22L45.70 22L45.70 13.60L48.06 13.60L48.06 17.09L51.31 13.60L53.92 13.60L50.49 17.32L54.10 22L51.34 22L48.94 18.95L48.06 19.90L48.06 22ZM64.95 22L58.21 22L58.21 13.60L64.80 13.60L64.80 15.44L60.56 15.44L60.56 16.85L64.30 16.85L64.30 18.63L60.56 18.63L60.56 20.17L64.95 20.17L64.95 22ZM73.73 22L69.76 22L69.76 13.60L73.73 13.60Q75.11 13.60 76.18 14.12Q77.25 14.63 77.84 15.58Q78.42 16.53 78.42 17.80L78.42 17.80Q78.42 19.07 77.84 20.02Q77.25 20.97 76.18 21.48Q75.11 22 73.73 22L73.73 22ZM72.14 15.50L72.14 20.10L73.64 20.10Q74.72 20.10 75.37 19.49Q76.02 18.88 76.02 17.80L76.02 17.80Q76.02 16.72 75.37 16.11Q74.72 15.50 73.64 15.50L73.64 15.50L72.14 15.50ZM85.53 22L83.15 22L83.15 13.60L85.53 13.60L85.53 22ZM93.04 22L90.71 22L90.71 13.60L92.66 13.60L96.37 18.07L96.37 13.60L98.70 13.60L98.70 22L96.75 22L93.04 17.52L93.04 22Z" fill="#FFFFFF" x="39"/></svg>