<svg xmlns="http://www.w3.org/2000/svg" width="127.51" height="35" viewBox="0 0 127.51 35"><rect class="svg__rect" x="0" y="0" width="0" height="35" fill="#31C4F3"/><rect class="svg__rect" x="0" y="0" width="127.51" height="35" fill="#1F222B"/><path class="svg__text" d="" fill="#FFFFFF"/><path class="svg__text" d="M16.57 22L14.19 22L14.19 13.60L18.03 13.60Q19.17 13.60 20.01 13.98Q20.85 14.35 21.31 15.06Q21.76 15.76 21.76 16.71L21.76 16.71Q21.76 17.66 21.31 18.35Q20.85 19.05 20.01 19.42Q19.17 19.80 18.03 19.80L18.03 19.80L16.57 19.80L16.57 22ZM16.57 15.47L16.57 17.93L17.89 17.93Q18.62 17.93 18.99 17.61Q19.36 17.29 19.36 16.71L19.36 16.71Q19.36 16.12 18.99 15.80Q18.62 15.47 17.89 15.47L17.89 15.47L16.57 15.47ZM26.09 17.80L26.09 17.80Q26.09 16.55 26.69 15.55Q27.30 14.56 28.36 14.00Q29.42 13.43 30.75 13.43L30.75 13.43Q32.08 13.43 33.15 14.00Q34.21 14.56 34.82 15.55Q35.42 16.55 35.42 17.80L35.42 17.80Q35.42 19.05 34.82 20.04Q34.21 21.04 33.15 21.60Q32.09 22.17 30.75 22.17L30.75 22.17Q29.42 22.17 28.36 21.60Q27.30 21.04 26.69 20.04Q26.09 19.05 26.09 17.80ZM28.48 17.80L28.48 17.80Q28.48 18.51 28.79 19.05Q29.09 19.60 29.60 19.90Q30.12 20.20 30.75 20.20L30.75 20.20Q31.39 20.20 31.91 19.90Q32.42 19.60 32.72 19.05Q33.02 18.51 33.02 17.80L33.02 17.80Q33.02 17.09 32.72 16.54Q32.42 16 31.91 15.70Q31.39 15.40 30.75 15.40L30.75 15.40Q30.11 15.40 29.60 15.70Q29.09 16 28.79 16.54Q28.48 17.09 28.48 17.80ZM42.53 22L40.15 22L40.15 13.60L43.99 13.60Q45.14 13.60 45.98 13.98Q46.81 14.35 47.27 15.06Q47.73 15.76 47.73 16.71L47.73 16.71Q47.73 17.62 47.30 18.30Q46.87 18.98 46.08 19.36L46.08 19.36L47.89 22L45.35 22L43.82 19.77L42.53 19.77L42.53 22ZM42.53 15.47L42.53 17.93L43.85 17.93Q44.58 17.93 44.95 17.61Q45.32 17.29 45.32 16.71L45.32 16.71Q45.32 16.12 44.95 15.79Q44.58 15.47 43.85 15.47L43.85 15.47L42.53 15.47ZM54.31 15.48L51.72 15.48L51.72 13.60L59.25 13.60L59.25 15.48L56.68 15.48L56.68 22L54.31 22L54.31 15.48ZM66.00 22L63.62 22L63.62 13.60L70.21 13.60L70.21 15.44L66.00 15.44L66.00 17.28L69.71 17.28L69.71 19.12L66.00 19.12L66.00 22ZM74.38 17.80L74.38 17.80Q74.38 16.55 74.98 15.55Q75.58 14.56 76.65 14.00Q77.71 13.43 79.04 13.43L79.04 13.43Q80.37 13.43 81.43 14.00Q82.50 14.56 83.10 15.55Q83.71 16.55 83.71 17.80L83.71 17.80Q83.71 19.05 83.10 20.04Q82.50 21.04 81.44 21.60Q80.38 22.17 79.04 22.17L79.04 22.17Q77.71 22.17 76.65 21.60Q75.58 21.04 74.98 20.04Q74.38 19.05 74.38 17.80ZM76.77 17.80L76.77 17.80Q76.77 18.51 77.07 19.05Q77.38 19.60 77.89 19.90Q78.41 20.20 79.04 20.20L79.04 20.20Q79.68 20.20 80.19 19.90Q80.71 19.60 81.01 19.05Q81.31 18.51 81.31 17.80L81.31 17.80Q81.31 17.09 81.01 16.54Q80.71 16 80.19 15.70Q79.68 15.40 79.04 15.40L79.04 15.40Q78.40 15.40 77.89 15.70Q77.38 16 77.07 16.54Q76.77 17.09 76.77 17.80ZM94.82 22L88.44 22L88.44 13.60L90.82 13.60L90.82 20.11L94.82 20.11L94.82 22ZM101.62 22L99.24 22L99.24 13.60L101.62 13.60L101.62 22ZM106.37 17.80L106.37 17.80Q106.37 16.55 106.97 15.55Q107.57 14.56 108.64 14.00Q109.70 13.43 111.03 13.43L111.03 13.43Q112.36 13.43 113.43 14.00Q114.49 14.56 115.10 15.55Q115.70 16.55 115.70 17.80L115.70 17.80Q115.70 19.05 115.10 20.04Q114.49 21.04 113.43 21.60Q112.37 22.17 111.03 22.17L111.03 22.17Q109.70 22.17 108.64 21.60Q107.57 21.04 106.97 20.04Q106.37 19.05 106.37 17.80ZM108.76 17.80L108.76 17.80Q108.76 18.51 109.07 19.05Q109.37 19.60 109.88 19.90Q110.40 20.20 111.03 20.20L111.03 20.20Q111.67 20.20 112.19 19.90Q112.70 19.60 113.00 19.05Q113.30 18.51 113.30 17.80L113.30 17.80Q113.30 17.09 113.00 16.54Q112.70 16 112.19 15.70Q111.67 15.40 111.03 15.40L111.03 15.40Q110.39 15.40 109.88 15.70Q109.37 16 109.07 16.54Q108.76 17.09 108.76 17.80Z" fill="#FFFFFF" x="39"/></svg>