<svg xmlns="http://www.w3.org/2000/svg" width="81.22" height="35" viewBox="0 0 81.22 35"><rect class="svg__rect" x="0" y="0" width="0" height="35" fill="#31C4F3"/><rect class="svg__rect" x="0" y="0" width="81.22" height="35" fill="#00AFF0"/><path class="svg__text" d="" fill="#FFFFFF"/><path class="svg__text" d="M13.60 21.24L13.60 21.24L14.38 19.49Q14.94 19.86 15.69 20.09Q16.43 20.32 17.15 20.32L17.15 20.32Q18.52 20.32 18.52 19.64L18.52 19.64Q18.52 19.28 18.13 19.11Q17.74 18.93 16.88 18.74L16.88 18.74Q15.93 18.53 15.29 18.30Q14.66 18.06 14.20 17.55Q13.75 17.03 13.75 16.16L13.75 16.16Q13.75 15.39 14.17 14.77Q14.59 14.15 15.42 13.79Q16.26 13.43 17.46 13.43L17.46 13.43Q18.29 13.43 19.10 13.62Q19.90 13.80 20.52 14.17L20.52 14.17L19.78 15.93Q18.58 15.28 17.45 15.28L17.45 15.28Q16.74 15.28 16.42 15.49Q16.10 15.70 16.10 16.04L16.10 16.04Q16.10 16.37 16.48 16.54Q16.87 16.71 17.72 16.89L17.72 16.89Q18.68 17.10 19.31 17.33Q19.94 17.56 20.40 18.07Q20.86 18.58 20.86 19.46L20.86 19.46Q20.86 20.21 20.44 20.83Q20.02 21.44 19.18 21.80Q18.34 22.17 17.14 22.17L17.14 22.17Q16.12 22.17 15.16 21.92Q14.20 21.67 13.60 21.24ZM27.79 22L25.44 22L25.44 13.60L27.79 13.60L27.79 17.09L31.05 13.60L33.66 13.60L30.23 17.32L33.84 22L31.08 22L28.68 18.95L27.79 19.90L27.79 22ZM40.07 18.95L36.87 13.60L39.38 13.60L41.37 16.94L43.36 13.60L45.66 13.60L42.45 18.99L42.45 22L40.07 22L40.07 18.95ZM52.13 22L49.75 22L49.75 13.60L53.59 13.60Q54.73 13.60 55.57 13.98Q56.41 14.35 56.87 15.06Q57.32 15.76 57.32 16.71L57.32 16.71Q57.32 17.66 56.87 18.35Q56.41 19.05 55.57 19.42Q54.73 19.80 53.59 19.80L53.59 19.80L52.13 19.80L52.13 22ZM52.13 15.47L52.13 17.93L53.45 17.93Q54.18 17.93 54.55 17.61Q54.92 17.29 54.92 16.71L54.92 16.71Q54.92 16.12 54.55 15.80Q54.18 15.47 53.45 15.47L53.45 15.47L52.13 15.47ZM68.82 22L62.08 22L62.08 13.60L68.67 13.60L68.67 15.44L64.43 15.44L64.43 16.85L68.16 16.85L68.16 18.63L64.43 18.63L64.43 20.17L68.82 20.17L68.82 22Z" fill="#FFFFFF" x="39"/></svg>