<svg xmlns="http://www.w3.org/2000/svg" width="104.63" height="35" viewBox="0 0 104.63 35"><rect class="svg__rect" x="0" y="0" width="0" height="35" fill="#31C4F3"/><rect class="svg__rect" x="0" y="0" width="104.63" height="35" fill="#1DA1F2"/><path class="svg__text" d="" fill="#FFFFFF"/><path class="svg__text" d="M15.98 15.48L13.40 15.48L13.40 13.60L20.92 13.60L20.92 15.48L18.35 15.48L18.35 22L15.98 22L15.98 15.48ZM27.37 22L24.65 13.60L27.10 13.60L28.78 18.96L30.56 13.60L32.74 13.60L34.44 19.01L36.20 13.60L38.47 13.60L35.74 22L33.20 22L31.60 16.89L29.91 22L27.37 22ZM45.36 22L42.98 22L42.98 13.60L45.36 13.60L45.36 22ZM52.33 15.48L49.74 15.48L49.74 13.60L57.27 13.60L57.27 15.48L54.70 15.48L54.70 22L52.33 22L52.33 15.48ZM63.43 15.48L60.85 15.48L60.85 13.60L68.37 13.60L68.37 15.48L65.80 15.48L65.80 22L63.43 22L63.43 15.48ZM79.48 22L72.74 22L72.74 13.60L79.33 13.60L79.33 15.44L75.10 15.44L75.10 16.85L78.83 16.85L78.83 18.63L75.10 18.63L75.10 20.17L79.48 20.17L79.48 22ZM86.67 22L84.29 22L84.29 13.60L88.13 13.60Q89.28 13.60 90.11 13.98Q90.95 14.35 91.41 15.06Q91.87 15.76 91.87 16.71L91.87 16.71Q91.87 17.62 91.44 18.30Q91.01 18.98 90.22 19.36L90.22 19.36L92.03 22L89.49 22L87.96 19.77L86.67 19.77L86.67 22ZM86.67 15.47L86.67 17.93L87.99 17.93Q88.72 17.93 89.09 17.61Q89.46 17.29 89.46 16.71L89.46 16.71Q89.46 16.12 89.09 15.79Q88.72 15.47 87.99 15.47L87.99 15.47L86.67 15.47Z" fill="#FFFFFF" x="39"/></svg>