<svg id="Capa_1" enable-background="new 0 0 510.784 510.784" height="512" viewBox="0 0 510.784 510.784" width="512" xmlns="http://www.w3.org/2000/svg"><g><g id="XMLID_859_"><g><path d="m255.969 28.264v128.69l-.38 77.66c-.07 13.03-10.65 23.55-23.67 23.55h-65.93-136.92c-11.47 0-20.77-9.29-20.77-20.76v-209.14c0-11.47 9.3-20.76 20.77-20.76h206.13c11.47 0 20.77 9.29 20.77 20.76zm-50 179.9v-150.66h-147.67v150.66z" fill="#6cf5c2"/></g></g><path d="m229.037 373.592h-125.925c-12.647 0-19.609-14.699-11.596-24.484l152.857-186.657c5.997-7.323 17.195-7.323 23.192 0l59.552 72.721 15.098 22.993-64.628 47.025-12.775 68.403h-35.775z" fill="#fccd7f"/><g id="XMLID_862_"><g><path d="m365.669 229.654c75.56 0 136.81 61.25 136.81 136.82 0 75.56-61.25 136.81-136.81 136.81s-136.82-61.25-136.82-136.81c0-75.57 61.26-136.82 136.82-136.82zm86.81 136.82c0-47.87-38.94-86.82-86.81-86.82s-86.82 38.95-86.82 86.82 38.95 86.81 86.82 86.81 86.81-38.94 86.81-86.81z" fill="#99e6fc"/></g></g><g><path d="m32.632 237.404v-209.14c0-11.47 9.3-20.76 20.77-20.76h-24.334c-11.47 0-20.77 9.29-20.77 20.76v209.14c0 11.47 9.3 20.76 20.77 20.76h24.334c-11.47.001-20.77-9.289-20.77-20.76z" fill="#00f2a6"/></g><path d="m124.626 349.108 147.897-180.602-4.959-6.056c-5.997-7.323-17.195-7.323-23.192 0l-152.856 186.658c-8.013 9.785-1.051 24.484 11.596 24.484h33.11c-12.647 0-19.609-14.699-11.596-24.484z" fill="#fbc56d"/><g><path d="m256.109 366.474c0-70.969 54.029-129.305 123.19-136.146-4.484-.443-9.03-.675-13.63-.675-75.56 0-136.82 61.25-136.82 136.82 0 75.56 61.26 136.81 136.82 136.81 4.6 0 9.147-.231 13.63-.675-69.161-6.839-123.19-65.174-123.19-136.134z" fill="#62dbfb"/></g><g><path d="m365.668 222.155c-12.364 0-24.368 1.565-35.829 4.503l-56.472-68.958c-2.645-3.23-6.073-5.608-9.899-6.958v-122.476c.001-15.586-12.679-28.266-28.265-28.266h-206.136c-15.586 0-28.265 12.68-28.265 28.266v209.137c0 15.585 12.68 28.265 28.265 28.265h121.087l-64.44 78.689c-5.562 6.791-6.683 15.938-2.926 23.872 3.757 7.935 11.545 12.863 20.324 12.863h63.662c4.142 0 7.5-3.357 7.5-7.5s-3.358-7.5-7.5-7.5h-63.662c-4.397 0-6.292-3.278-6.768-4.283s-1.812-4.547.974-7.948l152.857-186.658c1.427-1.743 3.539-2.743 5.792-2.743s4.365 1 5.793 2.744l52.696 64.348c-54.258 20.663-92.941 73.154-93.1 134.54h-22.622c-4.142 0-7.5 3.357-7.5 7.5s3.358 7.5 7.5 7.5h23.354c7.352 72.734 68.938 129.692 143.578 129.692 79.575 0 144.314-64.739 144.314-144.314s-64.737-144.315-144.312-144.315zm-117.199-71.413c-3.826 1.35-7.253 3.727-9.898 6.957l-25.102 30.652v-130.851c0-4.143-3.358-7.5-7.5-7.5h-79.173c-4.142 0-7.5 3.357-7.5 7.5s3.358 7.5 7.5 7.5h71.673v135.667h-132.667v-135.667h29.031c4.142 0 7.5-3.357 7.5-7.5s-3.358-7.5-7.5-7.5h-36.531c-4.142 0-7.5 3.357-7.5 7.5v150.667c0 4.143 3.358 7.5 7.5 7.5h132.798l-28.662 35h-133.371c-7.314 0-13.265-5.95-13.265-13.265v-209.136c0-7.315 5.95-13.266 13.265-13.266h206.137c7.314 0 13.265 5.951 13.265 13.266zm117.199 345.042c-71.305 0-129.315-58.01-129.315-129.314s58.01-129.314 129.315-129.314c71.304 0 129.314 58.01 129.314 129.314s-58.01 129.314-129.314 129.314z"/><path d="m365.668 272.155c-52.005 0-94.315 42.31-94.315 94.314s42.31 94.314 94.315 94.314c25.352 0 49.158-9.956 67.034-28.033 2.913-2.945 2.886-7.693-.06-10.606s-7.695-2.886-10.606.06c-15.037 15.206-35.055 23.58-56.368 23.58-43.734 0-79.315-35.58-79.315-79.314s35.581-79.314 79.315-79.314 79.314 35.58 79.314 79.314c0 10.897-2.184 21.465-6.492 31.41-1.646 3.801.101 8.217 3.901 9.862 3.8 1.647 8.216-.101 9.863-3.901 5.127-11.838 7.727-24.411 7.727-37.371.002-52.005-42.307-94.315-94.313-94.315z"/></g></g></svg>